{
    "asset" : {
        "generator" : "Khronos glTF Blender I/O v1.2.75",
        "version" : "2.0"
    },
    "scene" : 0,
    "scenes" : [
        {
            "name" : "Scene",
            "nodes" : [
                0,
                1,
                2
            ]
        }
    ],
    "nodes" : [
        {
            "mesh" : 0,
            "name" : "\u7403\u4f53"
        },
        {
            "mesh" : 1,
            "name" : "\u68f1\u89d2\u7403",
            "scale" : [
                0.43848031759262085,
                0.43848031759262085,
                0.43848031759262085
            ],
            "translation" : [
                -0.42318010330200195,
                0.1389390528202057,
                0.8717184066772461
            ]
        },
        {
            "mesh" : 2,
            "name" : "\u67f1\u4f53",
            "scale" : [
                0.3318343162536621,
                0.3318343162536621,
                0.3318343162536621
            ],
            "translation" : [
                0.1874677687883377,
                0,
                -0.894076943397522
            ]
        }
    ],
    "meshes" : [
        {
            "name" : "\u7403\u4f53",
            "primitives" : [
                {
                    "attributes" : {
                        "POSITION" : 0,
                        "NORMAL" : 1,
                        "TANGENT" : 2,
                        "TEXCOORD_0" : 3
                    },
                    "indices" : 4
                }
            ]
        },
        {
            "name" : "\u68f1\u89d2\u7403",
            "primitives" : [
                {
                    "attributes" : {
                        "POSITION" : 5,
                        "NORMAL" : 6,
                        "TANGENT" : 7,
                        "TEXCOORD_0" : 8
                    },
                    "indices" : 9
                }
            ]
        },
        {
            "name" : "\u67f1\u4f53",
            "primitives" : [
                {
                    "attributes" : {
                        "POSITION" : 10,
                        "NORMAL" : 11,
                        "TEXCOORD_0" : 12
                    },
                    "indices" : 13
                }
            ]
        }
    ],
    "accessors" : [
        {
            "bufferView" : 0,
            "componentType" : 5126,
            "count" : 1984,
            "max" : [
                1.000000238418579,
                1,
                1.0000003576278687
            ],
            "min" : [
                -0.9999998211860657,
                -1,
                -1
            ],
            "type" : "VEC3"
        },
        {
            "bufferView" : 1,
            "componentType" : 5126,
            "count" : 1984,
            "type" : "VEC3"
        },
        {
            "bufferView" : 2,
            "componentType" : 5126,
            "count" : 1984,
            "type" : "VEC4"
        },
        {
            "bufferView" : 3,
            "componentType" : 5126,
            "count" : 1984,
            "type" : "VEC2"
        },
        {
            "bufferView" : 4,
            "componentType" : 5123,
            "count" : 2880,
            "type" : "SCALAR"
        },
        {
            "bufferView" : 5,
            "componentType" : 5126,
            "count" : 240,
            "max" : [
                0.9510578513145447,
                1,
                0.9999999403953552
            ],
            "min" : [
                -0.9510578513145447,
                -1,
                -0.9999999403953552
            ],
            "type" : "VEC3"
        },
        {
            "bufferView" : 6,
            "componentType" : 5126,
            "count" : 240,
            "type" : "VEC3"
        },
        {
            "bufferView" : 7,
            "componentType" : 5126,
            "count" : 240,
            "type" : "VEC4"
        },
        {
            "bufferView" : 8,
            "componentType" : 5126,
            "count" : 240,
            "type" : "VEC2"
        },
        {
            "bufferView" : 9,
            "componentType" : 5123,
            "count" : 240,
            "type" : "SCALAR"
        },
        {
            "bufferView" : 10,
            "componentType" : 5126,
            "count" : 192,
            "max" : [
                1,
                1,
                1
            ],
            "min" : [
                -1,
                -1,
                -1
            ],
            "type" : "VEC3"
        },
        {
            "bufferView" : 11,
            "componentType" : 5126,
            "count" : 192,
            "type" : "VEC3"
        },
        {
            "bufferView" : 12,
            "componentType" : 5126,
            "count" : 192,
            "type" : "VEC2"
        },
        {
            "bufferView" : 13,
            "componentType" : 5123,
            "count" : 372,
            "type" : "SCALAR"
        }
    ],
    "bufferViews" : [
        {
            "buffer" : 0,
            "byteLength" : 23808,
            "byteOffset" : 0
        },
        {
            "buffer" : 0,
            "byteLength" : 23808,
            "byteOffset" : 23808
        },
        {
            "buffer" : 0,
            "byteLength" : 31744,
            "byteOffset" : 47616
        },
        {
            "buffer" : 0,
            "byteLength" : 15872,
            "byteOffset" : 79360
        },
        {
            "buffer" : 0,
            "byteLength" : 5760,
            "byteOffset" : 95232
        },
        {
            "buffer" : 0,
            "byteLength" : 2880,
            "byteOffset" : 100992
        },
        {
            "buffer" : 0,
            "byteLength" : 2880,
            "byteOffset" : 103872
        },
        {
            "buffer" : 0,
            "byteLength" : 3840,
            "byteOffset" : 106752
        },
        {
            "buffer" : 0,
            "byteLength" : 1920,
            "byteOffset" : 110592
        },
        {
            "buffer" : 0,
            "byteLength" : 480,
            "byteOffset" : 112512
        },
        {
            "buffer" : 0,
            "byteLength" : 2304,
            "byteOffset" : 112992
        },
        {
            "buffer" : 0,
            "byteLength" : 2304,
            "byteOffset" : 115296
        },
        {
            "buffer" : 0,
            "byteLength" : 1536,
            "byteOffset" : 117600
        },
        {
            "buffer" : 0,
            "byteLength" : 744,
            "byteOffset" : 119136
        }
    ],
    "buffers" : [
        {
            "byteLength" : 119880,
            "uri" : "data:application/octet-stream;base64,"
        }
    ]
}
